<svg width="51" height="53" viewBox="0 0 51 53" fill="none" xmlns="http://www.w3.org/2000/svg">
<g filter="url(#filter0_dd_7547_57)">
<rect x="4" y="4" width="43" height="43" rx="21.5" fill="white"/>
<path d="M17.5013 25.7587L16.9633 24.7815C16.3259 23.6236 16.6397 22.0053 17.6635 21.1703L23.3197 16.5572C24.3516 15.7156 25.7075 15.993 26.333 17.1738L26.8481 18.146C27.4604 19.3018 27.1426 20.8921 26.1341 21.7188L20.5008 26.337C19.4805 27.1734 18.1376 26.9145 17.5013 25.7587Z" fill="white" stroke="#4B066B" stroke-width="1.72303"/>
<path d="M15.8083 29.4353V21.2502C15.8083 19.927 16.8839 18.8559 18.2071 18.8614L29.8885 18.9098C31.2134 18.9153 32.2808 19.9979 32.2674 21.3228L32.1851 29.4594C32.1719 30.7693 31.1063 31.8242 29.7963 31.8242H18.1972C16.8779 31.8242 15.8083 30.7546 15.8083 29.4353Z" fill="#4B066B"/>
<path d="M25.2444 27.0272V23.6513C25.2444 23.1745 25.6317 22.7883 26.1086 22.7898L32.974 22.8112C33.4532 22.8127 33.8391 23.2051 33.8327 23.6843L33.7877 27.0388C33.7814 27.51 33.3976 27.8887 32.9263 27.8887H26.1059C25.6301 27.8887 25.2444 27.503 25.2444 27.0272Z" fill="#4B066B" stroke="white" stroke-width="1.07689"/>
<ellipse cx="28.4701" cy="25.3172" rx="0.947664" ry="1.15646" fill="white"/>
<path d="M19.51 33.994C19.51 34.218 19.46 34.41 19.36 34.57C19.26 34.73 19.124 34.852 18.952 34.936C18.636 35.088 18.254 35.164 17.806 35.164C17.73 35.164 17.624 35.16 17.488 35.152V36.802L17.944 36.856V37H16.246V36.856L16.696 36.802V33.178L16.18 33.118V32.98H17.374L18.076 32.962C18.572 32.966 18.934 33.054 19.162 33.226C19.394 33.398 19.51 33.654 19.51 33.994ZM17.656 34.978C17.984 34.978 18.236 34.89 18.412 34.714C18.588 34.534 18.676 34.296 18.676 34C18.676 33.704 18.614 33.488 18.49 33.352C18.366 33.212 18.17 33.142 17.902 33.142C17.714 33.142 17.576 33.15 17.488 33.166V34.966C17.56 34.974 17.616 34.978 17.656 34.978ZM22.4499 36.634C22.1699 36.922 21.7879 37.066 21.3039 37.066C20.8199 37.066 20.4379 36.922 20.1579 36.634C19.8779 36.346 19.7379 35.98 19.7379 35.536C19.7379 35.092 19.8779 34.726 20.1579 34.438C20.4379 34.15 20.8199 34.006 21.3039 34.006C21.7879 34.006 22.1699 34.15 22.4499 34.438C22.7299 34.726 22.8699 35.092 22.8699 35.536C22.8699 35.98 22.7299 36.346 22.4499 36.634ZM20.5719 35.536C20.5719 36.46 20.8159 36.922 21.3039 36.922C21.7919 36.922 22.0359 36.46 22.0359 35.536C22.0359 35.084 21.9819 34.742 21.8739 34.51C21.7659 34.274 21.5759 34.156 21.3039 34.156C21.0319 34.156 20.8419 34.274 20.7339 34.51C20.6259 34.742 20.5719 35.084 20.5719 35.536ZM24.3256 36.166C24.3256 36.402 24.3536 36.574 24.4096 36.682C24.4696 36.79 24.5876 36.844 24.7636 36.844C24.9396 36.844 25.1136 36.734 25.2856 36.514C25.4576 36.294 25.5436 36.104 25.5436 35.944V34.264L25.0696 34.24V34.102L26.3116 34.024V36.808L26.7976 36.832V36.97L25.5676 37.042L25.5976 36.442H25.5376C25.3056 36.854 24.9696 37.06 24.5296 37.06C23.8896 37.06 23.5696 36.752 23.5696 36.136C23.5696 35.52 23.5916 34.896 23.6356 34.264L23.1916 34.24V34.102L24.3856 34.036C24.3456 34.94 24.3256 35.65 24.3256 36.166ZM29.0956 35.044C29.1156 34.964 29.1256 34.874 29.1256 34.774C29.1256 34.67 29.0956 34.564 29.0356 34.456C28.9476 34.28 28.8136 34.192 28.6336 34.192C28.1536 34.192 27.9136 34.644 27.9136 35.548C27.9136 36.448 28.1596 36.898 28.6516 36.898C29.0236 36.898 29.3216 36.718 29.5456 36.358C29.6336 36.386 29.6776 36.43 29.6776 36.49C29.6776 36.546 29.6396 36.618 29.5636 36.706C29.4916 36.79 29.3636 36.872 29.1796 36.952C28.9996 37.028 28.7916 37.066 28.5556 37.066C28.1036 37.066 27.7456 36.928 27.4816 36.652C27.2216 36.372 27.0916 36 27.0916 35.536C27.0916 35.068 27.2276 34.696 27.4996 34.42C27.7716 34.144 28.1536 34.006 28.6456 34.006C28.7976 34.006 28.9476 34.026 29.0956 34.066C29.2436 34.102 29.3836 34.182 29.5156 34.306C29.6476 34.43 29.7136 34.58 29.7136 34.756C29.7136 34.928 29.6356 35.04 29.4796 35.092C29.4236 35.112 29.3616 35.122 29.2936 35.122C29.2256 35.122 29.1596 35.096 29.0956 35.044ZM32.3763 36.826L32.4123 34.924C32.4123 34.688 32.3823 34.516 32.3223 34.408C32.2623 34.3 32.1423 34.246 31.9623 34.246C31.7823 34.246 31.6043 34.356 31.4283 34.576C31.2563 34.796 31.1703 34.986 31.1703 35.146V36.826L31.6203 36.862V37H30.0123V36.862L30.4083 36.826V32.692L29.8923 32.674V32.53L31.1763 32.392V33.736C31.1763 34.188 31.1643 34.494 31.1403 34.654H31.1763C31.2843 34.454 31.4303 34.3 31.6143 34.192C31.7983 34.084 31.9963 34.03 32.2083 34.03C32.8483 34.03 33.1683 34.338 33.1683 34.954C33.1683 35.398 33.1543 36.022 33.1263 36.826L33.5403 36.862V37H32.0883V36.862L32.3763 36.826Z" fill="#4B066B"/>
</g>
<defs>
<filter id="filter0_dd_7547_57" x="0" y="0" width="51" height="51" filterUnits="userSpaceOnUse" color-interpolation-filters="sRGB">
<feFlood flood-opacity="0" result="BackgroundImageFix"/>
<feColorMatrix in="SourceAlpha" type="matrix" values="0 0 0 0 0 0 0 0 0 0 0 0 0 0 0 0 0 0 127 0" result="hardAlpha"/>
<feOffset dx="0.119444"/>
<feComposite in2="hardAlpha" operator="out"/>
<feColorMatrix type="matrix" values="0 0 0 0 0 0 0 0 0 0 0 0 0 0 0 0 0 0 0.25 0"/>
<feBlend mode="normal" in2="BackgroundImageFix" result="effect1_dropShadow_7547_57"/>
<feColorMatrix in="SourceAlpha" type="matrix" values="0 0 0 0 0 0 0 0 0 0 0 0 0 0 0 0 0 0 127 0" result="hardAlpha"/>
<feOffset/>
<feGaussianBlur stdDeviation="2"/>
<feComposite in2="hardAlpha" operator="out"/>
<feColorMatrix type="matrix" values="0 0 0 0 0 0 0 0 0 0 0 0 0 0 0 0 0 0 0.25 0"/>
<feBlend mode="normal" in2="effect1_dropShadow_7547_57" result="effect2_dropShadow_7547_57"/>
<feBlend mode="normal" in="SourceGraphic" in2="effect2_dropShadow_7547_57" result="shape"/>
</filter>
</defs>
</svg>
